PathFileType	4	(X/Y/Z)	C:/Users/beibeiliu/ov580/test_trc/User3\out6_training_dense_left.trc
DataRate	CameraRate	NumFrames	NumMarkers	Units	OrigDataRate	OrigDataStartFrame	OrigNumFrames
120	120	21	19	mm	120	126	500
Frame#	Time	ThumbCMC			ThumbMCP			ThumbIP			ThumbTip			IndexMCP			IndexPIP			IndexTip			MiddleMCP			MiddlePIP			MiddleTip			RingMCP			RingPIP			RingTip			PinkyMCP			PinkyPIP			PinkyTip			BackHand1			BackHand2			BackHand3	
		X0	Y0	Z0	X1	Y1	Z1	X2	Y2	Z2	X3	Y3	Z3	X4	Y4	Z4	X5	Y5	Z5	X6	Y6	Z6	X7	Y7	Z7	X8	Y8	Z8	X9	Y9	Z9	X10	Y10	Z10	X11	Y11	Z11	X12	Y12	Z12	X13	Y13	Z13	X14	Y14	Z14	X15	Y15	Z15	X16	Y16	Z16	X17	Y17	Z17	X18	Y18	Z18	
125	1.04167	-205.472	27.156	25.2479	-188.155	36.0666	-1.95794	-173.701	32.4012	-29.8893	-160.407	16.2334	-45.7835	-220.671	0.575791	-42.7116	-204.681	7.39311	-71.7808	-172.125	17.451	-64.427	-198.267	-16.3441	-49.3185	-168.74	-6.05648	-54.2498	-160.468	3.61105	-16.5722	-180.163	-29.7347	-31.8107	-154.441	-9.61021	-25.0113	-164.548	-5.49481	6.90033	-171.18	-40.0719	-16.3358	-151.533	-19.6253	-10.3596	-162.397	-16.0957	17.6967	-214.132	-38.638	14.3981	-216.035	-33.4869	44.8977	-227.078	-4.47357	26.4719	
126	1.05	-212.499	25.7603	26.2679	-196.97	31.8128	0.272149	-182.505	29.8239	-32.2526	-168.903	13.8918	-46.0171	-231.313	-1.03451	-45.911	-217.242	5.98268	-71.936	-182.781	14.0931	-70.912	-209.426	-21.0263	-43.6168	-182.059	-5.96847	-57.6262	-167.83	5.4118	-21.3044	-185.861	-29.8648	-33.4439	-163.787	-14.1068	-25.513	-171.422	-5.84402	4.81155	-178.589	-43.0829	-16.8525	-160.956	-21.9386	-13.1103	-171.984	-17.7621	16.923	-224.063	-40.1212	13.5612	-221.314	-33.7776	49.7299	-235.879	-9.56949	25.7769	
127	1.05833	-221.543	23.8394	27.6301	-203.883	34.384	-1.07986	-190.619	26.7672	-27.9582	-175.636	11.2427	-48.7221	-239.939	-4.63357	-43.4731	-231.936	3.64575	-70.631	-200.661	12.0045	-83.2247	-216.943	-18.8067	-47.2126	-187.882	-7.89222	-55.1363	-174.325	2.29244	-18.9872	-195.927	-30.076	-31.9243	-171.373	-17.0037	-25.2109	-182.423	-4.51348	6.85516	-185.785	-43.9164	-16.2748	-165.69	-25.2834	-8.79933	-181.697	-18.4108	17.8695	-231.515	-39.6197	19.1464	-231.325	-37.1714	46.6068	-243.244	-12.178	26.27	
128	1.06667	-227.984	21.5762	28.8459	-211.192	31.508	-0.596738	-197.432	25.1148	-28.9923	-183.091	12.7857	-44.8437	-248.628	-6.54202	-38.9334	-243.622	0.448704	-70.6349	-225.432	11.1169	-87.845	-223.202	-23.258	-46.0981	-196.018	-9.29301	-56.6412	-180.343	-0.931938	-21.7861	-201.96	-32.4344	-32.0009	-178.963	-18.3434	-26.3207	-189.042	-7.34095	7.46004	-196.329	-44.3675	-14.8632	-173.837	-25.4677	-7.74366	-192.372	-19.0377	18.1749	-236.872	-42.781	17.6503	-236.824	-39.4126	50.8737	-251.264	-10.8194	30.9064	
129	1.075	-231.983	21.369	28.9087	-215.23	28.3449	-0.393582	-202.687	22.1974	-31.0319	-190.886	9.61075	-42.3818	-256.487	-2.52039	-36.322	-252.59	2.29917	-70.5187	-237.932	9.09681	-89.5231	-231.782	-26.7108	-42.6285	-203.428	-12.0451	-55.7148	-185.469	-2.71327	-23.0506	-209.921	-34.495	-30.1593	-184.8	-21.0429	-24.2803	-193.538	-11.2001	7.50411	-202.344	-48.1029	-15.9182	-182.838	-27.0736	-9.71685	-197.313	-20.3841	18.5919	-245.076	-43.0513	19.4218	-244.273	-37.811	50.6919	-256.389	-9.2183	29.2567	
130	1.08333	-235.634	19.0469	28.2879	-220.348	26.9479	-2.84951	-206.696	20.7675	-29.8628	-195.117	6.23283	-45.8662	-262.117	-2.40218	-34.6174	-258.812	-0.474036	-67.9035	-237.728	5.60677	-89.4264	-239.7	-24.1495	-42.7855	-211.022	-15.3096	-56.0211	-192.51	-4.83682	-23.6156	-219.736	-38.7151	-27.1678	-191.687	-19.0525	-22.7238	-200.99	-12.2811	9.45602	-209.593	-46.8986	-16.26	-190.037	-30.4105	-10.2805	-201.073	-25.3312	18.5097	-251.738	-46.0228	17.8317	-246.713	-39.5053	51.1867	-260.425	-10.1135	33.8974	
131	1.09167	-235.987	16.8487	32.4461	-221.841	23.8555	0.915249	-210.177	20.3992	-26.3159	-199.344	1.46628	-42.5988	-265.812	-4.24331	-35.3644	-261.629	-0.506811	-64.1978	-234.398	1.90762	-80.3172	-244.804	-26.1247	-42.5674	-215.194	-17.4695	-53.8255	-197.796	-10.8017	-17.9393	-223.941	-39.19	-26.7587	-195.281	-27.3139	-22.0802	-202.088	-19.3785	9.10134	-217.843	-48.4637	-14.2033	-193.998	-35.8264	-8.04481	-204.71	-29.3047	22.6684	-255.039	-46.2937	23.1698	-253.794	-38.4717	53.4436	-262.466	-10.9821	36.5235	
132	1.1	-236.189	16.3789	33.3123	-220.868	24.0198	1.13322	-212.587	17.0075	-26.964	-203.116	-0.0641828	-41.5354	-265.403	-5.21919	-32.239	-254.42	-3.31483	-63.4559	-223.347	2.38161	-65.6372	-247.901	-25.4635	-40.719	-217.714	-21.4279	-50.2602	-203.085	-14.7628	-12.5695	-230.122	-37.0222	-27.3376	-200.167	-30.7479	-20.8688	-205.649	-19.0913	8.43719	-223.294	-50.5427	-12.7165	-198.829	-37.8907	-6.44902	-209.068	-32.9434	22.1925	-259.269	-42.0709	22.533	-255.831	-36.9233	59.0227	-266.132	-7.95352	33.8456	
133	1.10833	-233.957	18.8558	33.5077	-219.766	23.2212	5.09931	-212.47	13.5344	-23.8867	-206.137	-7.20985	-43.9684	-264.832	-2.28067	-29.9534	-248.14	-3.68344	-58.798	-216.06	0.210068	-47.4238	-251.994	-25.9233	-36.8081	-222.44	-19.568	-49.5322	-206.634	-18.6382	-13.7696	-236.349	-44.4275	-22.9151	-206.471	-33.8391	-24.2289	-209.684	-22.3187	9.00276	-226.979	-56.3503	-10.9892	-201.16	-45.8938	-7.20264	-208.485	-35.1215	19.0939	-263.831	-40.604	29.7888	-257.811	-37.0486	60.1514	-264.804	-7.99453	39.9336	
134	1.11667	-232.087	16.7407	37.2448	-221.507	17.7321	3.017	-214.477	10.7297	-24.6523	-207.898	-8.23969	-40.4378	-264.447	-4.35721	-29.5804	-241.875	0.141204	-56.8745	-217.156	-2.39329	-39.1884	-254.87	-24.2875	-35.867	-226.443	-24.0508	-50.2765	-210.19	-14.7788	-11.8058	-238.518	-44.4363	-23.0047	-207.859	-35.0857	-23.7565	-211.378	-26.0095	10.5766	-228.268	-56.9135	-13.4401	-204.396	-42.8406	-7.7925	-210.581	-34.1008	19.8854	-263.126	-41.4779	26.4476	-260.404	-35.6927	57.2602	-266.307	-5.89556	38.826	
135	1.125	-232.596	17.5422	39.5228	-220.668	21.25	5.87853	-214.586	11.6015	-25.4604	-207.551	-6.27447	-43.4618	-264.788	-5.34715	-33.1082	-242.945	-5.37636	-56.0736	-216.813	-3.17268	-37.2647	-255.525	-25.2292	-34.8453	-228.137	-21.5419	-50.2522	-209.894	-19.4683	-10.6924	-238.026	-39.4277	-25.0725	-206.671	-36.5316	-22.0687	-210.72	-23.5132	8.41422	-231.649	-55.2582	-8.82528	-203.51	-44.2011	-7.39899	-208.147	-36.025	21.1055	-263.721	-40.0496	29.0812	-256.943	-41.211	57.5983	-264.773	-6.7241	40.2285	
136	1.13333	-233.701	13.188	34.708	-221.759	19.6057	2.38967	-213.215	15.3931	-23.8065	-207.233	-5.81101	-44.1449	-266.329	-5.35323	-33.1295	-248.985	-5.96526	-59.1909	-218.797	-3.12421	-49.3068	-254.957	-26.2865	-36.3284	-225.535	-21.4142	-50.9639	-207.837	-13.3668	-14.5111	-236.814	-42.7321	-23.1298	-208.329	-35.9749	-26.0986	-209.269	-24.7779	9.38635	-225.843	-54.7224	-13.5129	-201.06	-45.9051	-7.29283	-209.497	-34.3011	23.4067	-261.242	-39.9315	30.2519	-255.908	-41.4313	58.5709	-264.107	-10.2308	39.439	
137	1.14167	-234.361	12.892	34.087	-220.296	21.1774	4.13393	-212.526	11.3522	-25.7635	-204.627	-6.64754	-42.87	-267.019	-5.34035	-29.303	-254.889	-0.294933	-62.6853	-223.083	2.9837	-64.0667	-252.69	-27.0097	-34.1819	-222.535	-21.2183	-53.2913	-202.313	-16.3898	-19.2652	-233.107	-44.7339	-23.2987	-203.232	-36.8936	-24.1729	-207.274	-21.7585	8.9952	-222.496	-53.5672	-12.9927	-198.102	-42.3147	-5.88616	-203.973	-33.9044	20.2269	-259.809	-42.8293	27.9235	-252.136	-41.1955	57.8476	-264.534	-9.16588	37.4894	
138	1.15	-231.697	14.3847	34.894	-218.395	20.4099	3.22452	-209.022	13.7655	-30.6423	-199.626	-3.17763	-45.4481	-266.948	-5.5873	-33.0133	-259.716	-3.82588	-66.1645	-231.007	2.90481	-79.7138	-247.645	-29.753	-40.678	-217.94	-20.9897	-54.3074	-197.959	-13.2581	-22.498	-229.719	-42.0367	-25.4026	-199.265	-31.1275	-25.381	-201.071	-24.452	7.61139	-218.183	-49.6207	-15.4684	-193.729	-39.6306	-6.24147	-201.309	-32.3547	19.1954	-257.629	-46.7848	21.7739	-249.903	-40.3705	57.1284	-262.54	-9.7458	33.3071	
139	1.15833	-229.687	18.1676	29.3275	-215.313	22.2124	-2.46478	-205.59	12.435	-30.3269	-197.412	-2.76856	-43.5627	-265.516	-1.41877	-35.2318	-263.234	1.41965	-67.5754	-246.585	1.49486	-87.7346	-243.262	-29.8929	-44.3787	-217.49	-21.3654	-57.9915	-194.525	-10.441	-26.6144	-223.392	-40.1751	-28.7343	-193.886	-30.2449	-23.9923	-199.844	-18.757	6.50676	-217.24	-52.5482	-14.662	-191.459	-39.9567	-9.74879	-201.467	-33.5457	19.8936	-253.069	-42.687	23.4221	-249.298	-41.7707	50.0066	-257.915	-11.1923	34.3155	
140	1.16667	-224.592	17.0846	27.7588	-207.872	23.1774	-2.00583	-197.801	14.5506	-31.5746	-189.503	-4.87454	-49.2899	-259.744	-2.04759	-37.4698	-261.62	1.41387	-68.5341	-252.717	2.1671	-92.1187	-239.915	-24.2298	-42.4278	-210.635	-20.8867	-58.4353	-189.232	-10.714	-24.3194	-221.458	-37.6284	-31.0059	-189.994	-27.0326	-25.9136	-195.833	-17.0077	4.12072	-212.119	-50.9963	-17.9127	-188.443	-38.5127	-11.4116	-196.956	-28.565	13.4011	-249.881	-40.6675	19.7996	-244.477	-37.3375	52.5698	-256.879	-5.73238	29.4809	
141	1.175	-217.613	20.1977	27.7478	-201.081	20.8727	-2.63054	-189.321	17.9681	-31.9811	-182.406	-1.46134	-46.0133	-252.597	4.29357	-36.5224	-255.835	6.51775	-63.8586	-252.137	9.73144	-93.9108	-234.289	-23.7994	-43.6484	-201.066	-14.5766	-58.2254	-182.185	-8.64628	-26.3092	-213.871	-39.1565	-33.487	-186.333	-30.8144	-28.6615	-187.324	-20.9705	1.76064	-205.489	-50.9727	-21.8625	-183.347	-39.0448	-14.7269	-192.474	-25.898	16.0761	-246.04	-39.1359	14.3708	-242.752	-37.895	46.7909	-248.429	-6.27048	29.2975	
142	1.18333	-210.479	23.2581	29.0552	-193.707	22.6544	-3.04564	-181.502	16.2495	-31.8124	-174.825	-3.59222	-46.5139	-245.69	5.49657	-38.0567	-247.535	5.93066	-66.4692	-246.148	7.92998	-90.6931	-225.717	-18.9467	-46.8175	-195.535	-17.634	-59.0084	-176.251	-11.9122	-23.0949	-211.101	-35.0802	-32.9128	-180.233	-30.5243	-30.0902	-183.543	-13.8723	1.71699	-199.96	-51.0334	-22.2181	-178.862	-35.9333	-16.1057	-183.821	-27.637	14.4749	-241.326	-35.7943	15.1334	-238.432	-37.5243	45.6568	-243.62	-4.94234	29.2767	
143	1.19167	-203.199	23.8518	27.1394	-185.526	21.3632	-2.97451	-173.424	15.4992	-30.65	-168	-4.9521	-46.2995	-236.015	9.96384	-39.8273	-238.672	11.7532	-65.739	-237.762	13.7058	-91.7321	-218.892	-19.3976	-48.6394	-187.432	-17.3575	-58.1269	-169.847	-8.98037	-23.3481	-206.285	-34.5597	-32.9472	-173.072	-30.2642	-28.5354	-173.265	-18.5039	-0.71378	-200.073	-50.6932	-19.5497	-174.294	-36.9475	-16.5215	-182.051	-27.3947	15.0056	-238.777	-30.1596	12.6248	-233.6	-33.3489	45.7788	-235.45	-0.915418	27.8826	
144	1.2	-189.956	24.6968	28.6913	-173.413	23.6575	-4.97575	-164.261	12.6485	-32.1212	-161.649	-8.93272	-49.9261	-227.331	17.8154	-37.7738	-228.317	22.9912	-66.1632	-227.985	24.0051	-94.0259	-216.183	-12.4097	-45.9315	-186.566	-15.6902	-59.6417	-165.582	-9.99425	-23.113	-200.786	-29.6086	-35.5161	-173.672	-31.5329	-32.2652	-172.158	-20.095	3.43255	-200.852	-43.8415	-19.4051	-172.792	-38.9444	-13.6804	-176.479	-29.4216	12.0117	-234.258	-21.1937	14.4551	-230.748	-23.834	47.1305	-227.033	9.5052	26.0265	
145	1.20833	-175.765	26.8379	26.7159	-160.986	20.0556	-2.75497	-155.8	7.17982	-32.249	-159.649	-13.7101	-46.7714	-215.412	28.4814	-39.1245	-216.387	31.8262	-63.4	-212.73	31.6931	-89.0036	-212.145	-3.83798	-42.942	-185.384	-15.1694	-57.37	-163.369	-14.36	-19.8865	-204.947	-21.5654	-30.7316	-175.402	-33.6171	-28.5019	-173.155	-20.5102	3.62449	-202.772	-42.3489	-21.778	-177.447	-42.8089	-12.4658	-180.082	-30.5913	15.4173	-230.561	-10.8325	17.7172	-228.631	-12.3864	49.3948	-214.515	20.4757	31.0629	
